# xmcd
#
# Track frame offsets:
#	150
#	16638
#	35543
#	49566
#	65301
#	74612
#	85483
#	105957
#	121257
#	135026
#	148439
#	163146
#
# Disc length: 2302 seconds
#
# Revision: 0
# Processed by: cddbd v1.5.2PL0 Copyright (c) Steve Scherf et al.
# Submitted via: audiograbber 1.83.01
#
DISCID=9c08fc0c
DTITLE=Edith Piaf  - De l'Accordéoniste à Milord
DYEAR=2000
DGENRE=Chanson
TTITLE0=L'accordéoniste
TTITLE1=Les trois cloches
TTITLE2=La vie en rose
TTITLE3=Hymne à l'amour
TTITLE4=La goualante du pauvre Jean
TTITLE5=Le ça ira
TTITLE6=Milord
TTITLE7=Je sais comment
TTITLE8=Mon manège à moi
TTITLE9=La foule
TTITLE10=Les amants d'un jour
TTITLE11=L'homme à la moto
EXTD=
EXTT0=
EXTT1=
EXTT2=
EXTT3=
EXTT4=
EXTT5=
EXTT6=
EXTT7=
EXTT8=
EXTT9=
EXTT10=
EXTT11=
PLAYORDER=
